<?xml version="1.0" encoding="UTF-8" standalone="no"?>
<!-- Created with Inkscape (http://www.inkscape.org/) by Marsupilami -->
<svg
   xmlns:svg="http://www.w3.org/2000/svg"
   xmlns="http://www.w3.org/2000/svg"
   version="1.0"
   width="1024"
   height="378"
   viewBox="0 0 334.96661 123.71875"
   id="svg2445">
  <defs
     id="defs2447" />
  <g
     transform="translate(5e-6,0)"
     id="layer1">
    <path
       d="M 3061.41,843.762 L 3048.91,885.242 L 3036.08,843.762 L 3061.41,843.762 z M 3114.26,801.07 L 3074.24,801.07 L 3069.11,817.41 L 3028.11,817.41 L 3022.92,801.07 L 2982.9,801.07 L 3027.92,918.77 L 3070.25,918.77 L 3114.26,801.07 z M 2890.26,801.07 L 2972.92,801.07 L 2972.92,830.73 L 2927.42,830.73 L 2927.42,918.879 L 2890.26,918.879 L 2890.26,801.07 z M 2762.75,848.762 C 2763.07,836.402 2763.24,823.242 2774.9,811.902 C 2783.58,803.57 2798.59,797.91 2815.93,797.91 C 2834.07,797.91 2847.75,803.922 2856.27,811.902 C 2870.11,825.082 2870.11,842.57 2870.11,856.07 L 2870.11,918.77 L 2832.59,918.77 L 2832.59,845.25 C 2832.59,840.25 2832.4,835.07 2828.07,830.891 C 2825.9,828.902 2822.06,826.73 2816.25,826.73 C 2811.92,826.73 2807.38,827.902 2804.41,831.102 C 2800.24,835.07 2800.07,840.25 2800.07,845.25 L 2800.07,918.77 L 2762.75,918.77 L 2762.75,848.762 z M 2597.9,801.07 L 2633.26,801.07 L 2633.26,873.41 C 2633.26,880.09 2633.1,881.91 2632.57,889.25 C 2635.42,876.91 2635.6,876.75 2638.09,867.242 L 2656.23,801.07 L 2683.93,801.07 L 2703.43,870.93 C 2705.77,879.441 2706.09,881.09 2708.08,889.941 C 2707.45,879.922 2707.26,877.75 2707.1,869.102 L 2707.1,801.07 L 2742.61,801.07 L 2742.61,918.77 L 2689.27,918.77 L 2675.9,868.242 C 2673.28,856.91 2672.61,853.922 2670.42,839.41 C 2668.77,850.07 2668.27,852.762 2665.59,864.41 L 2651.11,918.77 L 2597.9,918.77 L 2597.9,801.07 z M 2539,880.41 C 2539,893.91 2527.3,894.25 2520.8,894.25 L 2505.48,894.25 L 2505.48,866.742 L 2520.98,866.742 C 2527.16,866.742 2539,867.09 2539,880.41 z M 2580.66,801.07 L 2539.31,801.07 L 2516.51,842.57 L 2505.48,842.57 L 2505.48,801.07 L 2468.16,801.07 L 2468.16,918.879 L 2526.82,918.879 C 2538,918.879 2548.66,918.27 2555.81,915.262 C 2571.51,908.582 2576.18,892.59 2576.18,881.262 C 2576.18,876.75 2575.65,866.242 2567.16,857.57 C 2562.52,852.582 2557.5,850.75 2551.99,848.582 L 2580.66,801.07 z M 2415.9,861.082 C 2415.9,866.742 2415.4,871.902 2413.75,876.59 C 2408.1,892.91 2393.74,893.43 2390.42,893.43 C 2377.06,893.43 2364.4,884.25 2364.4,859.91 C 2364.4,839.41 2372.73,827.062 2390.42,827.062 C 2405.41,827.062 2415.9,838.91 2415.9,861.082 z M 2453.4,861.082 C 2453.4,831.262 2435.89,797.23 2389.71,797.23 C 2341.57,797.23 2327.05,832.91 2327.05,859.742 C 2327.05,893.43 2347.9,923.09 2390.42,923.09 C 2436.91,923.09 2453.4,889.09 2453.4,861.082 z M 2221.29,918.77 L 2221.29,801.07 L 2258.47,801.07 L 2258.47,846.23 L 2310.82,846.23 L 2310.82,871.57 L 2258.47,871.57 L 2258.47,892.77 L 2314.46,892.77 L 2314.46,918.77 L 2221.29,918.77 z M 2050.53,801.07 L 2148.72,801.07 L 2148.72,826.582 L 2087.86,826.582 L 2087.86,849.922 L 2140.02,849.922 L 2140.02,875.41 L 2087.86,875.41 L 2087.86,892.91 L 2143.69,892.91 L 2143.69,918.77 L 2050.53,918.77 L 2050.53,801.07 z M 1921.88,848.762 C 1922.22,836.402 1922.37,823.242 1934.04,811.902 C 1942.7,803.57 1957.69,797.91 1975.06,797.91 C 1993.21,797.91 2006.85,803.922 2015.34,811.902 C 2029.17,825.082 2029.17,842.57 2029.17,856.07 L 2029.17,918.77 L 1991.73,918.77 L 1991.73,845.25 C 1991.73,840.25 1991.56,835.07 1987.21,830.891 C 1985.04,828.902 1981.21,826.73 1975.38,826.73 C 1971.06,826.73 1966.55,827.902 1963.53,831.102 C 1959.38,835.07 1959.22,840.25 1959.22,845.25 L 1959.22,918.77 L 1921.88,918.77 L 1921.88,848.762 z M 1875.11,801.25 L 1902.97,801.25 L 1902.97,866.242 L 1848.94,866.242 L 1848.94,842.57 L 1870.79,842.57 C 1869.95,838.91 1869.44,835.73 1866.25,832.402 C 1860.43,826.402 1851.96,826.082 1848.6,826.082 C 1844.6,826.082 1835.91,826.242 1828.61,833.922 C 1820.26,842.41 1819.76,853.75 1819.76,860.762 C 1819.76,866.09 1819.76,880.09 1828.92,888.57 C 1832.62,892.09 1838.76,895.41 1847.58,895.41 C 1855.44,895.41 1861.46,892.77 1864.93,889.25 C 1868.62,885.582 1869.44,881.602 1870.26,877.91 L 1903.59,887.25 C 1901.6,892.77 1899.28,899.09 1892.28,905.93 C 1880.62,917.41 1862.44,923.59 1844.79,923.59 C 1803.78,923.59 1781.92,893.082 1781.92,859.25 C 1781.92,822.551 1806.45,806.73 1817.61,802.223 C 1823.6,799.742 1830.95,798.039 1839.76,798.039 C 1859.6,798.039 1869.79,805.391 1875.11,809.391 L 1875.11,801.25 z M 1727.36,843.762 L 1714.86,885.242 L 1702.03,843.762 L 1727.36,843.762 z M 1780.21,801.07 L 1740.2,801.07 L 1735.02,817.41 L 1694.02,817.41 L 1688.87,801.07 L 1648.86,801.07 L 1693.87,918.77 L 1736.21,918.77 L 1780.21,801.07 z M 1536.49,801.07 L 1634.67,801.07 L 1634.67,826.582 L 1573.85,826.582 L 1573.85,849.922 L 1626.02,849.922 L 1626.02,875.41 L 1573.85,875.41 L 1573.85,892.91 L 1629.65,892.91 L 1629.65,918.77 L 1536.49,918.77 L 1536.49,801.07 z M 1435.05,801.07 L 1517.73,801.07 L 1517.73,830.73 L 1472.22,830.73 L 1472.22,918.879 L 1435.05,918.879 L 1435.05,801.07 z M 1376.15,880.41 C 1376.15,893.91 1364.47,894.25 1357.96,894.25 L 1342.63,894.25 L 1342.63,866.742 L 1358.13,866.742 C 1364.3,866.742 1376.15,867.09 1376.15,880.41 z M 1417.79,801.07 L 1376.46,801.07 L 1353.62,842.57 L 1342.63,842.57 L 1342.63,801.07 L 1305.29,801.07 L 1305.29,918.879 L 1363.96,918.879 C 1375.11,918.879 1385.79,918.27 1392.97,915.262 C 1408.65,908.582 1413.3,892.59 1413.3,881.262 C 1413.3,876.75 1412.8,866.242 1404.29,857.57 C 1399.63,852.582 1394.62,850.75 1389.14,848.582 L 1417.79,801.07 z M 1189.69,801.07 L 1287.88,801.07 L 1287.88,826.582 L 1227,826.582 L 1227,849.922 L 1279.2,849.922 L 1279.2,875.41 L 1227,875.41 L 1227,892.91 L 1282.85,892.91 L 1282.85,918.77 L 1189.69,918.77 L 1189.69,801.07 z M 1137.27,879.23 C 1137.27,893.082 1126.4,893.77 1121.75,894.09 L 1100.73,894.09 L 1100.73,864.09 L 1122.07,864.09 C 1124.06,864.25 1126.24,864.25 1128.23,864.902 C 1133.9,866.742 1137.27,872.09 1137.27,879.23 z M 1174.09,880.41 C 1174.09,870.57 1172.09,859.91 1162.93,850.402 C 1153.11,840.25 1142.26,839.762 1129.43,839.41 L 1100.73,839.41 L 1100.73,801.07 L 1063.41,801.07 L 1063.41,918.879 L 1130.74,918.879 C 1143.55,918.41 1154.77,917.75 1164.26,907.93 C 1172.92,898.75 1174.09,887.91 1174.09,880.41 z M 935.891,848.762 C 936.242,836.402 936.41,823.242 948.078,811.902 C 956.73,803.57 971.742,797.91 989.074,797.91 C 1007.27,797.91 1020.9,803.922 1029.42,811.902 C 1043.24,825.082 1043.24,842.57 1043.24,856.07 L 1043.24,918.77 L 1005.76,918.77 L 1005.76,845.25 C 1005.76,840.25 1005.58,835.07 1001.27,830.891 C 999.086,828.902 995.258,826.73 989.418,826.73 C 985.062,826.73 980.578,827.902 977.582,831.102 C 973.41,835.07 973.234,840.25 973.234,845.25 L 973.234,918.77 L 935.891,918.77 L 935.891,848.762 z M 802.258,823.402 C 807.582,816.91 816.273,806.41 834.953,801.07 C 844.094,798.402 853.43,797.57 862.277,797.57 C 868.773,797.57 892.426,797.57 907.27,812.711 C 912.59,818.25 917.777,826.902 917.777,839.25 C 917.777,868.43 891.77,873.082 865.598,877.57 C 855.434,879.441 849.445,880.891 849.445,886.582 C 849.445,892.59 856.418,894.25 862.766,894.25 C 868.773,894.25 877.766,893.25 884.602,889.941 C 889.758,887.25 891.77,884.59 893.586,882.242 L 916.945,901.75 C 912.777,906.09 908.43,910.762 899.613,915.07 C 889.953,919.922 877.582,922.59 864.113,922.59 C 842.941,922.59 823.098,915.762 815.434,898.43 C 813.254,893.77 812.102,888.41 812.102,883.25 C 812.102,858.41 833.273,851.75 844.094,848.902 C 848.91,847.73 870.609,843.902 874.77,842.41 C 881.262,840.25 881.262,835.891 881.262,835.07 C 881.262,826.582 866.594,826.242 863.586,826.242 C 857.914,826.242 851.906,827.242 847.094,828.902 C 836.945,832.242 834.113,836.582 830.754,841.75 L 802.258,823.402 z M 3199.73,1509.71 L 3025.44,1333.78 C 2982.24,1290.57 2924.78,1266.88 2863.69,1267.04 L 2799.6,1266.96 L 2555.32,1266.96 L 2345.28,1056.53 C 2302.08,1013.33 2244.61,989.641 2183.52,989.789 L 2116.78,989.711 L 1936.01,989.711 C 1936.01,989.711 2408.56,1461.81 2484.09,1537.27 C 2486.76,1539.72 2489.45,1542.15 2492.38,1544.19 C 2493.15,1544.73 2493.93,1545.26 2494.72,1545.77 C 2495.46,1546.24 2496.22,1546.71 2496.97,1547.16 C 2497.34,1547.39 2497.71,1547.6 2498.08,1547.82 C 2498.44,1548.03 2498.81,1548.24 2499.18,1548.44 L 2506.39,1551.47 C 2506.39,1551.47 2495.02,1548.15 2492.96,1547.6 C 2484.37,1545.33 2475.42,1544.17 2466.28,1544.2 L 2466.25,1544.15 C 2335.3,1544.14 1822.62,1544.13 1822.62,1544.13 L 1822.15,1544.15 C 1817.93,1544.42 1813.79,1542.84 1810.79,1539.83 C 1807.97,1537.04 1806.43,1533.29 1806.43,1529.32 C 1806.43,1525.36 1807.97,1521.65 1810.75,1518.85 L 1950.63,1378.99 C 1993.68,1335.92 2017.41,1278.66 2017.39,1217.76 C 2017.39,1156.86 1993.66,1099.6 1950.55,1056.51 C 1907.68,1013.6 1850.67,989.871 1790,989.711 L 839.863,989.812 L 797.227,989.812 L 845.801,1038.38 L 1789.89,1038.29 C 1837.6,1038.4 1882.47,1057.08 1916.22,1090.87 C 1950.14,1124.77 1968.81,1169.85 1968.83,1217.76 C 1968.83,1265.69 1950.16,1310.75 1916.27,1344.65 L 1776.41,1484.5 C 1764.44,1496.47 1757.86,1512.39 1757.86,1529.32 C 1757.86,1546.3 1764.46,1562.23 1776.43,1574.19 C 1788.79,1586.55 1805.69,1593.21 1823.07,1592.71 C 1823.99,1592.71 2606.31,1592.75 2606.31,1592.75 C 2606.31,1592.75 2187.19,1173.99 2058.25,1045.19 C 2055.57,1042.75 2052.88,1040.31 2049.95,1038.27 C 2049.18,1037.74 2048.39,1037.21 2047.6,1036.71 C 2046.86,1036.22 2046.11,1035.75 2045.36,1035.3 C 2044.99,1035.08 2044.61,1034.86 2044.24,1034.64 C 2043.88,1034.44 2043.51,1034.22 2043.14,1034.02 L 2035.93,1030.98 C 2035.93,1030.98 2047.3,1034.31 2049.36,1034.86 C 2057.95,1037.14 2066.91,1038.3 2076.04,1038.27 L 2076.05,1038.29 C 2097.9,1038.29 2116.72,1038.29 2116.72,1038.29 C 2116.72,1038.29 2183.44,1038.37 2183.64,1038.37 C 2231.72,1038.25 2276.94,1056.9 2310.9,1090.87 L 2535.18,1315.53 L 2796.89,1315.53 C 2796.89,1315.53 2863.61,1315.61 2863.8,1315.61 C 2911.89,1315.49 2957.1,1334.15 2991.07,1368.11 L 3050.63,1427.78 L 3074.87,1452.06 L 3074.89,1452.06 C 3078.28,1455.46 3081.94,1458.48 3085.8,1461.16 C 3086.57,1461.71 3087.35,1462.23 3088.14,1462.74 C 3088.88,1463.21 3089.63,1463.68 3090.39,1464.14 C 3090.76,1464.36 3091.13,1464.58 3091.5,1464.79 C 3091.86,1465.01 3092.23,1465.21 3092.6,1465.42 L 3099.81,1468.44 C 3099.81,1468.44 3088.44,1465.12 3086.38,1464.58 C 3077.79,1462.3 3068.83,1461.14 3059.7,1461.17 L 3059.68,1461.14 L 2681.06,1461.14 L 2729.63,1509.71 L 2798.09,1509.71 C 2821.8,1509.71 2845.1,1509.71 2941.22,1509.71 C 3067.66,1509.71 3199.73,1509.71 3199.73,1509.71"
       transform="matrix(0.125,0,0,-0.125,-99.65338,223.3725)"
       id="path2426"
       style="fill:#231f20;fill-opacity:1;fill-rule:nonzero;stroke:none" />
    <path
       d="M 1749.15,1786.98 C 1688.52,1786.81 1631.49,1763.1 1588.58,1720.17 C 1545.47,1677.08 1521.74,1619.8 1521.76,1558.87 C 1521.76,1497.97 1545.47,1440.73 1588.52,1397.68 L 1728.36,1257.82 C 1731.18,1255.03 1732.72,1251.33 1732.72,1247.37 C 1732.74,1243.38 1731.18,1239.65 1728.36,1236.82 C 1725.36,1233.83 1721.22,1232.25 1716.96,1232.51 L 1716.53,1232.54 C 1716.53,1232.54 1101.65,1232.49 1039.91,1232.49 L 991.328,1183.91 C 1186.35,1183.91 1715.2,1183.97 1716.02,1183.97 C 1733.44,1183.46 1750.36,1190.12 1762.7,1202.49 C 1774.75,1214.54 1781.33,1230.51 1781.29,1247.51 C 1781.29,1264.32 1774.67,1280.26 1762.66,1292.23 L 1622.88,1432.04 C 1588.99,1465.9 1570.32,1510.94 1570.32,1558.87 C 1570.32,1606.81 1589.01,1651.91 1622.93,1685.83 C 1656.7,1719.6 1701.57,1738.27 1749.26,1738.39 C 1762.19,1738.39 3136.72,1738.32 3336.91,1738.31 L 3336.93,1738.34 C 3346.06,1738.31 3355.01,1739.47 3363.61,1741.75 C 3365.67,1742.3 3377.04,1745.62 3377.04,1745.62 L 3369.83,1742.59 C 3369.46,1742.38 3369.09,1742.18 3368.73,1741.96 C 3368.35,1741.75 3367.98,1741.54 3367.61,1741.31 C 3366.86,1740.85 3366.11,1740.38 3365.37,1739.91 C 3364.58,1739.41 3363.79,1738.88 3363.02,1738.33 C 3359.16,1735.66 3355.5,1732.63 3352.11,1729.23 L 3352.08,1729.23 L 3215.52,1592.67 C 3140.76,1592.67 2874.42,1592.63 2874.42,1592.63 L 2813.21,1592.63 L 2763.97,1544.05 L 2874.44,1544.05 L 3234.16,1544.09 L 3476.96,1786.89 L 1749.15,1786.98"
       transform="matrix(0.125,0,0,-0.125,-99.65338,223.3725)"
       id="path2424"
       style="fill:#7b7979;fill-opacity:1;fill-rule:nonzero;stroke:none" />
  </g>
</svg>
